<?xml version="1.0" encoding="UTF-8" standalone="no"?>
<!-- Created with Inkscape (http://www.inkscape.org/) -->

<svg
   width="129.68446mm"
   height="11.328378mm"
   viewBox="0 0 129.68446 11.328378"
   version="1.1"
   id="svg5"
   xmlns="http://www.w3.org/2000/svg"
   xmlns:svg="http://www.w3.org/2000/svg">
  <defs
     id="defs2" />
  <g
     id="layer1"
     transform="translate(-36.203659,-133.06756)">
    <g
       aria-label="OITSWILLIAMV0"
       id="text2168"
       style="font-weight:bold;font-size:16.9333px;line-height:1.05;font-family:Play;-inkscape-font-specification:'Play Bold';stroke-width:0.264583">
      <path
         d="m 41.402182,144.39594 q -0.914398,0 -1.69333,-0.11853 -0.761999,-0.11853 -1.59173,-0.4064 -0.897465,-0.3048 -1.405464,-0.98213 -0.507999,-0.69427 -0.507999,-1.6764 v -4.80906 q 0,-0.81279 0.355599,-1.45626 0.372533,-0.64347 0.948265,-1.016 0.507999,-0.32173 1.253064,-0.54186 0.745065,-0.22014 1.388531,-0.27094 0.592665,-0.0508 1.253064,-0.0508 0.778932,0 1.354664,0.0677 0.575732,0.0508 1.286931,0.23706 0.812798,0.23707 1.33773,0.57574 0.524933,0.33866 0.880532,0.94826 0.372533,0.62653 0.372533,1.50706 v 4.80906 q 0,0.9144 -0.491066,1.5748 -0.474133,0.6604 -1.320798,0.99906 -1.523997,0.6096 -3.420526,0.6096 z m 0.03387,-1.8796 q 0.558799,0 0.931332,-0.0339 0.389466,-0.0508 0.795865,-0.16933 0.406399,-0.11854 0.609599,-0.38947 0.220133,-0.28787 0.220133,-0.7112 v -4.82599 q 0,-0.77893 -0.626532,-1.10066 -0.626532,-0.33867 -1.94733,-0.33867 -1.320797,0 -1.947329,0.32173 -0.626532,0.32174 -0.626532,1.1176 v 4.82599 q 0,0.42333 0.220132,0.7112 0.220133,0.27093 0.643466,0.38947 0.406399,0.11853 0.778932,0.16933 0.389466,0.0339 0.948264,0.0339 z"
         id="path2514" />
      <path
         d="m 48.776899,133.2369 h 2.641595 v 10.98971 h -2.641595 z"
         id="path2516" />
      <path
         d="m 56.343967,135.11649 h -3.38666 v -1.87959 h 9.397981 v 1.87959 h -3.369726 v 9.11012 h -2.641595 z"
         id="path2518" />
      <path
         d="m 67.447186,144.39594 q -1.574797,0 -3.894659,-0.3048 v -2.01506 q 2.878661,0.44026 3.928526,0.44026 2.201329,0 2.201329,-1.13453 v -0.71119 q 0,-0.54187 -0.321733,-0.82974 -0.304799,-0.28786 -1.117598,-0.28786 H 66.95612 q -3.623726,0 -3.623726,-2.87866 v -0.8128 q 0,-1.43933 1.202264,-2.11666 1.202265,-0.67734 3.809993,-0.67734 1.354664,0 3.43746,0.22014 v 1.96426 q -2.556928,-0.3048 -3.522127,-0.3048 -1.33773,0 -1.794929,0.22013 -0.491066,0.23707 -0.491066,0.74507 v 0.77893 q 0,0.8636 1.456264,0.8636 h 1.320797 q 1.879596,0 2.726261,0.69426 0.846665,0.69427 0.846665,2.11667 v 0.72813 q 0,1.96426 -1.405463,2.65853 -0.677332,0.3556 -1.507064,0.49106 -0.812799,0.1524 -1.964263,0.1524 z"
         id="path2520" />
      <path
         d="m 73.093913,133.2369 h 2.743195 l 2.133595,8.02638 2.133596,-8.02638 h 2.455329 l 2.302928,8.02638 1.964263,-8.02638 h 2.675462 l -3.522127,10.98971 h -2.607728 l -2.099729,-7.97559 -2.167463,7.97559 h -2.607728 z"
         id="path2522" />
      <path
         d="m 90.812494,133.2369 h 2.641595 v 10.98971 h -2.641595 z"
         id="path2524" />
      <path
         d="m 95.839567,133.2369 h 2.641595 v 9.11011 h 5.401718 v 1.8796 h -8.043313 z"
         id="path2526" />
      <path
         d="m 105.66221,133.2369 h 2.64159 v 9.11011 h 5.40172 v 1.8796 h -8.04331 z"
         id="path2528" />
      <path
         d="m 115.48484,133.2369 h 2.64159 v 10.98971 h -2.64159 z"
         id="path2530" />
      <path
         d="m 123.42444,133.2369 h 3.21733 l 3.96239,10.98971 h -2.67546 l -0.98213,-2.8956 h -4.01319 l -0.9652,2.8956 h -2.60773 z m 2.9464,6.33305 -1.38853,-4.13172 h -0.0677 l -1.38853,4.13172 z"
         id="path2532" />
      <path
         d="m 131.82283,133.2369 h 3.75919 l 2.70933,7.85705 2.67546,-7.85705 h 3.53906 v 10.98971 h -2.3876 v -8.12799 h -0.0508 l -2.77706,8.12799 h -2.11666 l -2.86173,-8.12799 h -0.0677 v 8.12799 h -2.42146 z"
         id="path2534" />
      <path
         d="m 145.68565,133.2369 h 2.67546 l 2.94639,8.78838 h 0.0677 l 2.9464,-8.78838 h 2.60773 l -4.06399,10.98971 h -3.23427 z"
         id="path2536" />
      <path
         d="m 161.82414,144.39594 q -0.74507,0 -1.2192,-0.0508 -0.47413,-0.0508 -1.03293,-0.2032 -0.57574,-0.16933 -0.93133,-0.47413 -0.3556,-0.32173 -0.59267,-0.9144 -0.254,-0.57573 -0.254,-1.38853 v -5.26626 q 0,-0.77893 0.23707,-1.37159 0.23706,-0.59267 0.6096,-0.93133 0.32173,-0.28787 0.88053,-0.4572 0.5588,-0.18627 1.11759,-0.23707 0.64347,-0.0339 1.18534,-0.0339 0.76199,0 1.21919,0.0508 0.4572,0.0339 1.016,0.2032 0.6096,0.18627 0.9652,0.49107 0.3556,0.3048 0.6096,0.88053 0.254,0.57573 0.254,1.40546 v 5.26626 q 0,0.77893 -0.254,1.3716 -0.23707,0.59266 -0.6096,0.9144 -0.33867,0.28786 -0.93133,0.47413 -0.57573,0.18626 -1.10067,0.22013 -0.47413,0.0508 -1.16839,0.0508 z m 0.0339,-1.59173 q 0.7112,0 1.016,-0.0847 0.3048,-0.1016 0.4064,-0.35559 0.1016,-0.254 0.1016,-0.82974 v -5.60492 q 0,-0.57573 -0.1016,-0.82973 -0.1016,-0.254 -0.4064,-0.33867 -0.3048,-0.1016 -1.016,-0.1016 -0.72813,0 -1.04986,0.1016 -0.3048,0.0847 -0.4064,0.33867 -0.1016,0.254 -0.1016,0.82973 v 5.60492 q 0,0.57574 0.1016,0.82974 0.1016,0.25399 0.4064,0.35559 0.32173,0.0847 1.04986,0.0847 z"
         id="path2538" />
    </g>
  </g>
</svg>
